<svg width="97" height="61" viewBox="0 0 97 61" fill="none" xmlns="http://www.w3.org/2000/svg">
<path d="M2.928 44.528V17.504H7.152V13.376H13.248V17.504H17.52V25.712H19.872V17.504H24.144V13.376H30.288V17.504H34.464V44.528H28.416V19.952H26.016V28.112H21.744V40.448H15.648V28.112H11.376V19.952H9.024V44.528H2.928ZM39.8655 44.528V21.584H44.0895V17.504H48.3135V13.376H54.4575V17.504H58.6815V21.584H62.9535V44.528H56.8095V36.32H45.9615V44.528H39.8655ZM45.9615 29.744H56.8095V24.032H52.5855V19.952H50.1855V24.032H45.9615V29.744Z" fill="#04336C"/>
<path d="M70 7V41.6675H73.0006V39.0006H75.999V36.3338H78.9996V33.6669H82.0002V39.0006H85.0008V44.3325H88.0014V49.6662H91.002V55H97V49.6662H94.0026V44.3325H91.002V39.0006H88.0014V31H97V28.3331H94.0026V25.6662H91.002V23.0013H88.0014V20.3344H85.0008V17.6675H82.0002V15.0006H78.9986V12.3338H75.998V9.66688H73.0006V7H70Z" fill="#04336C"/>
</svg>
