<svg width="186" height="358" viewBox="0 0 186 358" fill="none" xmlns="http://www.w3.org/2000/svg">
<path d="M12.16 0.852997C8.6933 1.74887 7.5733 5.89819 10.1866 8.16147C11.36 9.24594 11.7866 9.34024 14.0266 9.05734C19.0933 8.39722 24.4266 8.72729 31.2 10.189C61.5466 16.6959 124.8 42.2048 160.96 62.4328C164.427 64.4131 167.147 66.0634 167.04 66.1577C166.347 66.7707 151.893 63.5172 128 57.3875C102.667 50.8806 82.56 45.8354 79.68 45.2225C75.7866 44.3737 64.16 42.7706 62.08 42.7706C58.6133 42.7706 54.56 44.138 52.3733 46.1184L50.2933 47.9573L50.5066 51.3522C50.8266 56.0673 52.32 59.1322 57.8666 66.4406C65.8666 77.144 76 87.5173 93.3333 102.983C99.2 108.217 103.413 112.178 102.667 111.753C99.68 109.961 86.4 102.511 81.92 100.06C72.5866 94.9673 56.16 87.1401 51.7866 85.7727C40.48 82.1421 35.0933 82.6607 32.32 87.7059C30.88 90.3464 30.9333 92.704 32.48 97.5134C35.4666 106.519 42.08 117.694 53.3866 132.641C59.2533 140.421 59.4666 140.798 59.4666 143.25C59.4666 147.965 65.0133 160.413 74.72 177.624C85.0133 195.871 96.96 214.496 119.52 247.738C127.84 259.997 134.667 270.088 134.667 270.229C134.667 270.371 130.507 268.06 125.44 265.137C115.467 259.384 98.8266 250.143 92.6933 247.031C88.5866 244.909 84.6933 241.42 81.3333 236.799C78.2933 232.649 77.8666 232.319 75.5733 232.319C73.5466 232.319 71.2 233.781 71.2 235.054C71.2 236.233 69.9733 235.95 64.0533 233.451C51.7333 228.311 33.8133 222.653 24.9066 221.192C19.2533 220.249 9.0133 220.484 6.1333 221.616C-0.0533664 224.021 -0.960033 231.612 3.83997 240.099C5.54663 243.023 11.36 250.708 15.52 255.471C29.4933 271.549 65.92 301.16 96.4266 321.388C119.253 336.524 137.707 346.662 153.973 353.168C163.84 357.082 171.467 358.449 174.88 356.846C177.493 355.573 178.667 351.047 177.333 346.897C176.64 344.681 171.2 336.052 166.4 329.593C162.72 324.689 151.093 310.732 142.56 301.019C140.533 298.756 139.04 296.917 139.2 296.917C139.36 296.917 141.333 298.473 143.627 300.312C153.227 308.233 155.2 309.365 157.707 308.186C161.44 306.441 161.173 303.424 156.853 297.86C154.293 294.559 144.32 279.707 144.533 279.518C145.12 278.999 182.293 302.905 204.64 318.276L213.6 324.359L212 325.679C208.64 328.461 210.56 333.223 215.04 333.223C217.547 333.223 219.307 332.186 219.84 330.394L220.267 329.027L225.333 332.658C230.56 336.335 244.32 346.426 254.027 353.687C257.067 355.903 259.733 357.648 260.053 357.506C261.493 356.705 259.733 355.007 249.493 347.369C220.32 325.632 182.293 299.84 150.987 280.461L140.853 274.237L128.107 255.518C90.4533 200.304 72.9066 171.541 66.9866 155.368C66.08 152.963 65.2266 150.134 65.0133 149.097C64.5866 146.74 64.4266 146.598 72 155.227C87.7333 173.097 105.44 190.826 125.6 208.932C146.933 228.076 161.387 238.921 165.44 238.921C170.773 238.921 171.627 234.913 167.627 228.877C162.347 220.956 151.787 208.319 139.84 195.636C116.853 171.258 84.0533 142.873 72.6933 137.592C67.9466 135.423 63.36 135.093 61.3866 136.838C60.6933 137.451 60.32 137.168 58.08 134.339C50.24 124.484 42.4533 112.413 39.5733 105.718C35.6266 96.6176 35.3066 92.091 38.56 89.2148C39.9466 87.9888 40.16 87.9417 44 88.1774C53.44 88.7904 65.6533 94.0242 92.2666 108.924C110.24 119.014 118.347 124.06 125.333 129.482C128.853 132.217 133.92 136.083 136.533 138.064C139.2 140.044 143.04 143.297 145.12 145.278C148.213 148.201 149.227 148.861 150.507 148.861C152.533 148.861 154.72 147.4 155.147 145.749C155.84 143.392 154.613 141.93 150.453 140.185C145.6 138.111 125.013 125.238 117.387 119.533C109.653 113.734 85.0666 92.091 77.9733 84.924C64.64 71.2972 57.8133 61.6783 56.2133 54.3227C55.5733 51.2107 56.32 49.6076 59.1466 48.2873C61.0133 47.3914 62.1333 47.25 66.6666 47.2971C69.6 47.3443 74.2933 47.7215 77.0666 48.1459C86.9866 49.7019 125.493 59.4622 161.76 69.6469C168.32 71.4387 174.347 72.9475 175.147 72.9475C177.173 72.9475 179.467 70.8729 179.467 69.034C179.467 67.1479 176.96 65.1204 171.627 62.7157C169.333 61.6783 162.933 58.6606 157.333 55.973C111.52 34.1419 62.1333 14.4326 24.32 2.88052C15.68 0.240021 14.9866 0.145721 12.16 0.852997ZM72.4266 142.26C84.3733 146.221 120.107 177.294 145.013 205.396C156.587 218.457 165.493 232.319 162.347 232.319C161.067 232.319 154.453 228.83 150.72 226.19C130.24 211.62 93.6533 176.445 68.96 147.635C65.76 143.91 65.0133 142.732 65.44 142.119C66.08 141.034 68.8533 141.081 72.4266 142.26ZM31.8933 224.964C44.5333 228.264 62.56 234.818 72.2133 239.534C76.5866 241.655 78.1333 242.834 84.7466 248.822C88.9066 252.594 99.1466 261.789 107.52 269.333C122.613 282.866 127.52 287.864 142.987 305.64C158.613 323.604 164.053 330.63 168.96 339.306C172.053 344.775 172.267 345.341 172.267 348.406C172.267 352.791 171.627 353.216 166.08 352.838C160.48 352.508 154.507 350.717 145.707 346.709C114.187 332.469 69.3866 301.632 33.5466 269.475C22.56 259.62 17.7066 254.481 11.4133 246.135C7.30663 240.618 5.6533 237.176 5.22663 233.027C4.6933 227.934 6.55997 225.199 11.3066 224.021C15.52 222.936 26.1333 223.455 31.8933 224.964ZM102.773 254.999C110.453 259.148 130.4 270.606 135.253 273.624C137.973 275.274 138.613 276.076 142.293 282.064C148.32 291.966 152.32 299.274 152.16 300.076C152.053 300.595 150.987 300.217 148 298.426C139.573 293.428 124.16 280.602 114.88 270.984C111.253 267.211 105.333 261.223 101.76 257.64C98.1333 254.103 95.3066 251.18 95.4666 251.18C95.6266 251.18 98.88 252.925 102.773 254.999Z" fill="#0A66C2"/>
</svg>
