<?xml version="1.0" standalone="no"?>
<!DOCTYPE svg PUBLIC "-//W3C//DTD SVG 20010904//EN"
 "http://www.w3.org/TR/2001/REC-SVG-20010904/DTD/svg10.dtd">
<svg version="1.0" xmlns="http://www.w3.org/2000/svg"
 width="750.000000pt" height="1334.000000pt" viewBox="0 0 750.000000 1334.000000"
 preserveAspectRatio="xMidYMid meet">

<g transform="translate(0.000000,1334.000000) scale(0.100000,-0.100000)"
fill="#000000" stroke="none">
<path d="M2403 10989 c-65 -19 -86 -107 -37 -155 22 -23 30 -25 72 -19 95 14
195 7 322 -24 569 -138 1755 -679 2433 -1108 65 -42 116 -77 114 -79 -13 -13
-284 56 -732 186 -475 138 -852 245 -906 258 -73 18 -291 52 -330 52 -65 0
-141 -29 -182 -71 l-39 -39 4 -72 c6 -100 34 -165 138 -320 150 -227 340 -447
665 -775 110 -111 189 -195 175 -186 -56 38 -305 196 -389 248 -175 108 -483
274 -565 303 -212 77 -313 66 -365 -41 -27 -56 -26 -106 3 -208 56 -191 180
-428 392 -745 110 -165 114 -173 114 -225 0 -100 104 -364 286 -729 193 -387
417 -782 840 -1487 156 -260 284 -474 284 -477 0 -3 -78 46 -173 108 -187 122
-499 318 -614 384 -77 45 -150 119 -213 217 -57 88 -65 95 -108 95 -38 0 -82
-31 -82 -58 0 -25 -23 -19 -134 34 -231 109 -567 229 -734 260 -106 20 -298
15 -352 -9 -116 -51 -133 -212 -43 -392 32 -62 141 -225 219 -326 262 -341
945 -969 1517 -1398 428 -321 774 -536 1079 -674 185 -83 328 -112 392 -78 49
27 71 123 46 211 -13 47 -115 230 -205 367 -69 104 -287 400 -447 606 -38 48
-66 87 -63 87 3 0 40 -33 83 -72 180 -168 217 -192 264 -167 70 37 65 101 -16
219 -48 70 -235 385 -231 389 11 11 708 -496 1127 -822 l168 -129 -30 -28
c-63 -59 -27 -160 57 -160 47 0 80 22 90 60 l8 29 95 -77 c98 -78 356 -292
538 -446 57 -47 107 -84 113 -81 27 17 -6 53 -198 215 -547 461 -1260 1008
-1847 1419 l-190 132 -239 397 c-706 1171 -1035 1781 -1146 2124 -17 51 -33
111 -37 133 -8 50 -11 53 131 -130 295 -379 627 -755 1005 -1139 400 -406 671
-636 747 -636 100 0 116 85 41 213 -99 168 -297 436 -521 705 -431 517 -1046
1119 -1259 1231 -89 46 -175 53 -212 16 -13 -13 -20 -7 -62 53 -147 209 -293
465 -347 607 -74 193 -80 289 -19 350 26 26 30 27 102 22 177 -13 406 -124
905 -440 337 -214 489 -321 620 -436 66 -58 161 -140 210 -182 50 -42 122
-111 161 -153 58 -62 77 -76 101 -76 38 0 79 31 87 66 13 50 -10 81 -88 118
-91 44 -477 317 -620 438 -145 123 -606 582 -739 734 -250 289 -378 493 -408
649 -12 66 2 100 55 128 35 19 56 22 141 21 55 -1 143 -9 195 -18 186 -33 908
-240 1588 -456 123 -38 236 -70 251 -70 38 0 81 44 81 83 0 40 -47 83 -147
134 -43 22 -163 86 -268 143 -859 463 -1785 881 -2494 1126 -162 56 -175 58
-228 43z m1130 -2999 c224 -84 894 -743 1361 -1339 217 -277 384 -571 325
-571 -24 0 -148 74 -218 130 -384 309 -1070 1055 -1533 1666 -60 79 -74 104
-66 117 12 23 64 22 131 -3z m-760 -1754 c237 -70 575 -209 756 -309 82 -45
111 -70 235 -197 78 -80 270 -275 427 -435 283 -287 375 -393 665 -770 293
-381 395 -530 487 -714 58 -116 62 -128 62 -193 0 -93 -12 -102 -116 -94 -105
7 -217 45 -382 130 -591 302 -1431 956 -2103 1638 -206 209 -297 318 -415 495
-77 117 -108 190 -116 278 -10 108 25 166 114 191 79 23 278 12 386 -20z
m1329 -637 c144 -88 518 -331 609 -395 51 -35 63 -52 132 -179 113 -210 188
-365 185 -382 -2 -11 -22 -3 -78 35 -158 106 -447 378 -621 582 -68 80 -179
207 -246 283 -68 75 -121 137 -118 137 3 0 64 -37 137 -81z"/>
</g>
</svg>
