<svg width="232" height="407" viewBox="0 0 232 407" fill="none" xmlns="http://www.w3.org/2000/svg">
<path d="M199.229 0.302307C198.913 0.473877 197.399 0.988556 195.84 1.44604C177.156 7.02185 157.207 15.8859 140.036 26.2368C119.658 38.5322 102.646 57.5756 93.9023 77.9058C88.7964 89.7436 87.0342 101.61 88.8868 111.704C90.5134 120.682 94.806 129.089 101.697 136.895C108.588 144.701 113.332 148.447 129.644 158.826C141.098 166.146 142.77 167.261 147.153 170.578C153.84 175.639 157.388 178.727 162.787 184.217C164.12 185.59 164.165 185.676 164.436 187.506C165.227 193.081 168.774 213.497 169.859 218.873C170.943 224.163 171.734 227.966 171.982 229.024C172.163 229.739 172.57 231.54 172.886 233.027L173.473 235.743L173.135 239.032C172.954 240.833 172.705 243.035 172.57 243.892C172.457 244.75 172.321 245.837 172.276 246.323C170.943 257.646 166.131 280.178 161.635 295.933C155.49 317.579 150.068 328.644 146.204 327.501C145.097 327.186 143.742 326.014 142.544 324.355C136.806 316.435 131.903 299.021 126.345 267.053C125.984 264.88 124.854 257.246 124.357 253.328C123.725 248.439 123.318 243.521 123.318 240.518C123.318 237.773 123.273 237.516 122.753 236.887C122.03 235.943 120.855 235.943 120.042 236.83C119.477 237.43 119.455 237.63 119.364 240.461C119.274 244.236 118.348 253.3 116.879 264.909C116.585 267.254 116.292 269.713 116.224 270.342C116.133 270.971 115.93 272.572 115.749 273.916C115.591 275.26 115.388 276.861 115.298 277.49C114.778 282.094 112.948 295.304 111.999 301.194C110.689 309.429 110.214 311.86 109.966 311.317C109.536 310.344 107.774 302.052 104.792 287.126C101.132 268.74 96.9749 252.185 94.1508 244.807C93.6538 243.492 93.2697 242.377 93.3149 242.32C93.3601 242.263 96.139 239.918 99.4827 237.116C105.244 232.255 108.226 229.796 111.909 226.822C112.79 226.107 114.213 224.963 115.072 224.249C115.953 223.534 117.828 222.047 119.251 220.932C120.675 219.817 123.318 217.758 125.125 216.357C129.508 212.925 140.353 204.719 143.99 202.088C146.724 200.115 146.927 199.915 146.927 199.143C146.927 198.486 146.814 198.257 146.453 198.2C145.639 198.057 125.08 213.469 113.671 222.762C113.016 223.305 111.705 224.363 110.734 225.135C107.322 227.88 103.03 231.426 97.6979 235.943L92.3208 240.49L91.6657 239.718C91.2138 239.175 90.7168 238.917 89.926 238.803C88.8642 238.688 88.7512 238.746 87.8927 239.832C87.1697 240.747 86.8534 241.519 86.4016 243.321C86.0853 244.607 85.8142 245.78 85.7916 245.98C85.7916 246.18 84.3457 247.61 82.606 249.182C79.5108 251.956 68.6438 262.107 68.4179 262.45C68.3501 262.536 67.8982 262.993 67.4012 263.479C66.9042 263.937 66.4523 264.366 66.3845 264.451C66.0908 264.88 63.4249 267.397 63.3571 267.311C63.3345 267.254 63.0634 266.167 62.7697 264.909C61.6175 259.791 59.8101 253.328 58.9064 250.898C56.0597 243.378 52.219 243.464 49.3497 251.127C47.3842 256.359 45.6671 264.966 44.786 273.916C44.7182 274.774 44.6053 275.689 44.5827 275.946C44.5375 276.203 44.3342 279.12 44.1082 282.465L43.7016 288.556L42.3234 290.157C36.9916 296.448 26.2827 310.43 22.7582 315.663C21.9675 316.835 21.2671 317.865 21.1994 317.95C20.7475 318.465 15.6868 326.443 13.8794 329.502C8.00528 339.367 3.80306 348.946 1.70195 357.152C0.323798 362.614 -0.128054 366.188 0.0300946 370.677C0.210835 375.853 1.13713 379.541 3.32861 383.716C7.0338 390.836 13.9923 396.669 23.5716 400.786C27.7738 402.588 32.812 404.16 36.9012 404.99C45.2153 406.677 48.4912 406.991 58.3642 406.991C66.0231 407.02 72.5975 406.791 74.3371 406.448C74.6308 406.391 75.7831 406.276 76.8901 406.162C89.1353 405.075 108.7 400.5 121.736 395.668C123.047 395.211 124.312 394.753 124.56 394.667C126.255 394.153 135.089 390.407 139.088 388.52C157.998 379.598 173.812 368.247 187.594 353.692C195.23 345.658 202.708 335.907 209.147 325.671C210.141 324.098 211 322.783 211.045 322.725C211.09 322.697 211.745 323.64 212.491 324.813C216.354 330.989 220.376 333.648 223.245 331.961C225.685 330.503 226.973 327.072 228.012 319.237C228.441 316.035 228.983 308.543 229.164 303.082C229.368 297.506 229.368 281.865 229.164 275.174C229.051 271.657 229.096 269.169 229.255 268.054C229.797 264.28 230.497 255.416 230.768 249.182C230.836 247.438 230.949 245.637 230.994 245.179C231.198 243.635 231.265 210.123 231.085 204.576C230.429 185.304 229.706 174.61 228.464 166.089C226.95 155.624 226.069 153.25 223.674 153.25C222.522 153.25 221.731 153.736 220.782 155.023C218.184 158.483 213.62 170.55 209.283 185.418C208.673 187.448 208.153 189.193 208.13 189.221C208.108 189.278 207.611 188.935 207.023 188.421C204.312 186.076 200.336 184.503 197.806 184.818C195.388 185.132 193.468 187.048 192.79 189.907C192.361 191.709 192.203 196.627 192.451 200.43C192.564 201.917 192.745 205.005 192.88 207.292C193.016 209.58 193.174 212.068 193.242 212.868C193.332 214.126 193.807 223.905 194.146 231.168C194.372 236.687 194.53 243.464 194.417 243.321C194.349 243.235 194.078 242.091 193.829 240.747C190.621 224.449 184.566 209.866 175.394 196.427L173.338 193.425L172.909 190.851C171.802 183.96 169.158 173.123 167.532 168.634C166.379 165.517 165.724 164.688 164.346 164.688C161.725 164.688 161.454 167.461 162.99 177.984C163.284 180.014 163.533 181.787 163.533 181.901C163.533 182.016 162.358 180.958 160.935 179.557C156.28 175.01 149.232 169.263 142.86 164.888C141.505 163.944 135.857 160.256 130.322 156.682C124.786 153.107 118.89 149.19 117.218 147.96C94.7383 131.519 86.4694 112.619 91.982 90.2011C92.9534 86.2837 93.4279 84.7682 94.8512 81.1368C100.07 67.7836 108.904 55.0594 120.675 43.8506C124.719 40.019 127.949 37.3312 132.694 33.8428C148.735 22.1479 177.382 8.70886 193.106 5.56357C195.388 5.10605 198.077 5.10605 200.178 5.59216C200.946 5.73511 201.104 5.67795 201.827 4.76294C202.889 3.41904 202.912 2.30386 201.85 0.959961C201.036 -0.069397 200.313 -0.240967 199.229 0.302307ZM223.81 159.598C224.488 161.857 226.024 168.233 226.543 170.864C226.973 173.037 227.763 178.727 228.035 181.558C228.554 187.477 228.961 194.168 229.164 200.43C229.232 202.546 229.345 205.634 229.413 207.235C229.571 210.924 229.571 236.887 229.413 240.175C229.345 241.519 229.232 244.264 229.164 246.323C229.096 248.353 228.983 250.498 228.938 251.041C228.893 251.584 228.78 253.328 228.712 254.872C228.554 257.961 228.193 259.819 228.17 257.76C228.148 256.674 227.538 250.212 227.018 245.465C226.702 242.663 225.549 234.771 225.075 232.026C221.392 211.467 217.145 199.601 210.842 192.252L209.576 190.794L210.864 186.533C213.982 176.268 217.19 167.862 219.969 162.715C221.099 160.599 222.838 158.111 223.2 158.111C223.29 158.111 223.561 158.797 223.81 159.598ZM166.266 173.323C167.148 175.525 168.729 180.729 169.407 183.531C170.13 186.591 170.785 189.907 170.717 189.993C170.672 190.05 169.7 188.964 168.526 187.591L166.402 185.104L165.882 179.814C165.385 174.839 165.205 171.55 165.453 171.55C165.521 171.55 165.882 172.351 166.266 173.323ZM172.073 197.942C172.75 202.832 173.202 206.778 173.36 209.294C173.451 210.466 173.564 211.753 173.609 212.153C173.79 213.24 173.993 228.909 173.858 228.738C173.654 228.509 171.327 216.786 170.175 210.352C169.294 205.291 166.922 189.707 166.922 188.878C166.922 188.707 167.983 189.907 169.271 191.537L171.598 194.482L172.073 197.942ZM202.505 189.622C203.657 190.079 205.69 191.394 206.888 192.367C207.136 192.595 206.978 193.453 206.12 197.027C203.454 208.036 201.285 220.703 200.246 231.454C200.155 232.226 200.065 233.084 200.02 233.313C199.975 233.542 199.862 234.885 199.771 236.315C199.703 237.716 199.59 238.946 199.568 239.032C199.342 239.546 199.116 248.439 199.116 257.332C199.116 266.567 199.274 272.858 199.568 275.06C199.613 275.46 199.726 276.547 199.794 277.49C201.172 294.275 204.583 309.258 209.238 318.922C209.689 319.866 209.983 320.781 209.87 320.924C209.215 322.068 205.623 327.701 204.109 329.96C193.106 346.43 177.969 361.985 162.855 372.421C160.392 374.137 153.795 378.34 152.01 379.37C151.446 379.684 150.293 380.342 149.412 380.857C144.758 383.544 135.405 388.005 129.305 390.493C109.31 398.556 89.0901 403.303 68.2371 404.761C65.0064 404.99 53.1227 404.99 51.0894 404.761C50.2534 404.675 48.6945 404.532 47.6327 404.446C37.1949 403.531 26.4182 400.415 18.669 396.011C16.5227 394.81 11.3716 391.15 11.0327 390.607C10.9649 390.493 10.2194 389.721 9.36084 388.863C6.22047 385.746 3.82565 381.457 2.65084 376.853C-0.625091 363.958 5.02306 346.372 19.7082 323.669C21.0864 321.553 22.4871 319.409 22.8034 318.951C27.0057 312.861 28.8131 310.344 31.7275 306.513C33.8738 303.711 42.0297 293.531 42.9108 292.559L43.4982 291.901L43.4757 302.567C43.4305 318.722 43.7694 327.844 44.8312 340.396C46.006 354.15 48.062 367.932 49.9823 374.68C52.6257 384.002 56.8957 388.091 66.5427 390.493C69.4345 391.207 70.1123 391.265 75.5345 391.265C81.0471 391.265 83.2386 391.065 87.7346 390.121C88.1186 390.035 88.7286 389.921 89.0901 389.835C109.92 385.575 136.896 369.333 156.981 349.003C157.907 348.06 158.72 347.202 158.788 347.116C158.856 347.03 159.511 346.344 160.257 345.543C161.59 344.142 162.358 343.284 165.001 340.253C167.306 337.594 174.422 328.53 176.32 325.814C177.292 324.384 178.173 323.183 178.24 323.097C178.331 322.983 180.929 318.98 182.126 317.092C185.47 311.86 189.74 302.71 191.548 296.934C192.451 294.046 192.429 294.103 192.903 294.646C193.129 294.904 193.739 295.19 194.281 295.275C195.501 295.504 196.586 294.789 197.128 293.388C197.806 291.615 197.783 283.466 197.083 268.769C197.038 267.597 196.925 263.994 196.857 260.763C196.789 257.532 196.676 254.072 196.631 253.042C196.586 252.013 196.473 248.553 196.405 245.322C196.337 242.091 196.224 239.003 196.179 238.46C196.134 237.916 196.021 234.828 195.93 231.597C195.863 228.366 195.772 225.678 195.727 225.592C195.682 225.507 195.592 222.819 195.501 219.588C195.411 216.357 195.298 213.669 195.275 213.583C195.23 213.497 195.117 209.952 195.027 205.72C194.778 192.996 195.366 189.822 198.167 188.992C199.139 188.678 200.856 188.935 202.505 189.622ZM212.672 199.429C214.502 202.403 215.744 204.976 217.213 208.865C222.16 222.104 225.459 242.205 226.792 267.625C227.018 271.743 226.995 272.115 226.476 275.288C224.036 289.757 219.969 301.909 213.372 314.605C212.4 316.435 211.542 317.893 211.429 317.807C211.158 317.607 209.486 313.947 208.402 311.174C204.764 301.909 201.895 286.583 201.149 272.343C201.082 270.914 200.969 269.198 200.901 268.512C200.698 266.31 200.652 252.156 200.833 248.039C201.014 243.864 201.217 240.29 201.375 238.317C201.963 231.654 202.234 228.824 202.505 226.879C202.686 225.621 202.889 224.02 202.957 223.305C203.183 221.389 204.855 211.181 205.352 208.722C205.6 207.55 205.962 205.806 206.165 204.862C206.459 203.432 208.243 195.855 208.628 194.454C208.763 193.911 210.774 196.37 212.672 199.429ZM176.501 201.574C186.012 216.5 191.773 233.685 193.942 253.614C194.53 258.818 194.53 271.943 193.965 276.489C193.49 280.35 192.474 286.268 192.248 286.583C191.909 287.04 189.876 282.894 187.458 276.775C184.386 268.998 180.5 256.417 177.54 244.607C175.552 236.715 175.236 235.314 175.371 234.514C175.778 231.769 175.959 221.875 175.71 215.728C175.507 211.124 174.942 204.833 174.264 199.944C174.129 198.8 174.061 197.942 174.151 198C174.264 198.085 175.303 199.687 176.501 201.574ZM175.055 242.034C175.055 242.263 175.936 245.751 176.998 249.811C181.403 266.453 186.396 281.894 189.921 289.728L190.938 291.959L190.305 294.017C185.832 308.572 176.41 324.069 161.838 340.825C161.228 341.569 160.008 342.913 159.127 343.828C158.269 344.771 157.5 345.629 157.433 345.715C157.094 346.172 149.661 353.292 147.582 355.122C136.67 364.701 124.493 373.05 113.038 378.712C108.316 381.057 104.882 382.572 101.403 383.83C99.8442 384.402 98.082 385.06 97.4494 385.289C95.3708 386.061 88.4575 387.69 85.0234 388.262C82.6286 388.634 80.1886 388.806 76.6642 388.806C69.9542 388.806 66.6782 388.148 62.2049 385.975C59.539 384.66 57.7768 383.258 55.992 381.028C52.5353 376.653 50.0953 367.789 47.9716 351.691C47.7682 350.204 47.5649 348.66 47.5197 348.26C46.8194 343.313 45.7123 328.072 45.4412 319.809C45.2379 313.69 45.2379 296.762 45.4412 292.502L45.5994 289.5L46.7742 288.098C49.7338 284.639 52.5127 281.608 57.7994 276.06C59.7197 274.03 61.4594 272.2 61.6853 272C62.0016 271.628 62.1145 271.857 62.7245 274.402C65.3453 285.153 69.1182 303.882 72.7331 323.812C73.8175 329.845 73.9305 330.303 74.5405 331.161C75.0827 331.875 75.3086 331.99 76.122 331.904C76.8901 331.847 77.1838 331.618 77.7034 330.817C78.4038 329.731 78.6071 328.33 78.9234 322.668C79.2623 316.635 80.4145 303.339 81.3183 294.932C82.1994 286.726 83.3516 276.604 83.6453 274.345C83.826 273.087 84.0745 271.085 84.2327 269.913C85.046 263.422 86.8083 253.328 87.8701 249.154C88.4801 246.78 88.5931 246.495 89.5645 245.608L90.6264 244.665L91.0331 245.351C91.7108 246.495 93.812 252.127 95.1675 256.388C99.1664 268.998 103.188 287.641 107.164 311.86C107.684 315.034 108.271 317.95 108.497 318.379C109.288 319.895 111.14 319.895 111.931 318.351C112.135 317.979 112.496 315.977 112.722 313.89C114.349 299.85 116.246 284.724 119.025 263.908C120.923 249.554 121.081 248.467 121.33 248.467C121.42 248.467 121.51 248.553 121.51 248.696C121.51 248.811 121.917 251.47 122.437 254.615C122.934 257.76 123.544 261.478 123.77 262.907C125.08 271.114 127.882 285.439 129.87 294.217C132.988 307.857 135.925 317.15 139.336 324.012C141.889 329.102 144.216 331.389 146.882 331.389C149.119 331.389 150.836 329.874 152.914 326.071C157.139 318.322 163.329 298.564 168.503 276.203C170.695 266.767 173.993 248.61 174.513 243.235C174.58 242.348 174.739 241.605 174.852 241.605C174.965 241.605 175.055 241.805 175.055 242.034ZM84.4134 253.757C83.3742 260.134 81.996 270.57 80.166 286.354C79.669 290.586 79.059 295.676 78.8105 297.649C78.562 299.622 78.1101 303.539 77.7938 306.37C76.9353 313.919 75.8734 322.582 75.7153 323.24C75.5571 323.898 75.3538 323.126 73.7497 316.092C72.6201 311.145 71.6034 306.398 69.9994 298.364C68.5986 291.444 66.3168 280.578 64.9386 274.345C64.1479 270.828 63.9897 269.684 64.1931 269.455C64.8257 268.712 77.2742 256.702 78.5845 255.559C78.9008 255.273 80.4597 253.843 82.0864 252.356C83.6905 250.869 85.0234 249.668 85.046 249.697C85.0686 249.726 84.7975 251.556 84.4134 253.757ZM55.2916 251.212C56.5568 253.042 58.3868 257.903 60.036 263.851C60.8042 266.567 61.4142 268.912 61.4142 269.084C61.4142 269.455 61.3238 269.57 58.4771 272.458C57.1668 273.802 56.0597 274.945 55.992 275.031C55.9242 275.145 55.269 275.832 54.5234 276.632C52.6257 278.634 52.4223 278.863 48.9882 282.666C46.6838 285.21 45.9157 285.897 45.8705 285.525C45.7349 284.696 46.4805 276.661 47.0905 272.057C48.1749 264.08 49.7112 257.703 51.5638 253.529C52.3094 251.813 53.6875 249.897 54.162 249.897C54.2749 249.897 54.7945 250.498 55.2916 251.212ZM227.176 292.788C227.04 303.625 226.679 310.173 225.888 315.949C225.007 322.325 223.516 326.929 222.048 327.901C220.895 328.644 218.952 327.787 216.558 325.47C215.202 324.127 212.785 320.61 212.785 319.923C212.785 319.695 213.349 318.494 214.05 317.235C217.461 311.145 222.093 300.108 224.149 293.217C225.233 289.528 226.679 283.838 226.95 282.208C227.266 280.292 227.312 282.294 227.176 292.788ZM194.123 288.47C194.033 288.956 193.92 289.328 193.875 289.242C193.807 289.185 193.829 288.699 193.92 288.213C194.01 287.727 194.123 287.355 194.168 287.441C194.213 287.498 194.191 287.955 194.123 288.47Z" fill="#711906"/>
<path d="M163.849 143.357C163.284 144.043 163.081 144.586 163.081 145.244C163.081 145.902 163.284 146.416 163.849 147.131C164.414 147.818 164.82 148.104 165.34 148.104C165.86 148.104 166.289 147.818 166.831 147.131C167.396 146.416 167.599 145.902 167.599 145.244C167.599 144.586 167.396 144.043 166.831 143.357C166.289 142.642 165.86 142.385 165.34 142.385C164.82 142.385 164.414 142.642 163.849 143.357Z" fill="#711906"/>
</svg>
